<svg xmlns="http://www.w3.org/2000/svg" viewBox="0 0 1010.23 1076"><defs><style>.cls-1{fill:#8bc53f;stroke:#231f20;stroke-miterlimit:10;stroke-width:3px;}</style></defs><g id="Layer_2" data-name="Layer 2"><g id="Layer_1-2" data-name="Layer 1"><path class="cls-1" d="M556.89,326C368.51,421.42,119.22,497.9,1.79,1073.1h0s4.21.59,109.39,1C118.19,787.69,194.09,509.76,556.89,326Z"/><path class="cls-1" d="M351,1.5H1.79V1073.1C7,1033.79,15,922.41,27.48,823.19,67,508.85,362.68,326.86,482.8,270s279.81-77.69,390.59-56.11C560.49,324,553.49,514.6,543.94,587.25c0,238.81.72,275.5-89.91,389.87-66.35,62.07-93.22,87.19-125.77,97.37h50.83c367.49,0,629.64-136.76,629.64-536.5C1008.73,137.55,693.28,1.5,351,1.5Z"/></g></g></svg>